<svg xmlns="http://www.w3.org/2000/svg" viewBox="0 0 32 32" width="64" height="64">
    <path style="text-indent:0;text-align:start;line-height:normal;text-transform:none;block-progression:tb;-inkscape-font-specification:Bitstream Vera Sans" d="M 16 6 C 11.43764 6 8.0835373 6.7766097 5.84375 7.5625 C 3.6039627 8.3483903 2.40625 9.1875 2.40625 9.1875 L 2 9.5 L 2 10 L 2 15 L 2 16 L 2 20 L 2 26 L 2 27 L 3 27 L 6 27 L 7 27 L 7 26 L 7 25 L 25 25 L 25 26 L 25 27 L 26 27 L 29 27 L 30 27 L 30 26 L 30 20 L 30 16 L 30 15 L 30 10 L 30 9.5 L 29.59375 9.1875 C 29.59375 9.1875 28.396037 8.3483903 26.15625 7.5625 C 23.916463 6.7766097 20.56236 6 16 6 z M 16 8 C 20.33764 8 23.464787 8.7233903 25.5 9.4375 C 27.251994 10.052235 27.787078 10.479175 28 10.625 L 28 15 L 26 15 L 26 13 L 26 12.40625 L 25.5 12.125 C 25.5 12.125 23.446914 11 20.5 11 C 18.375856 11 16.761215 11.579868 16 11.90625 C 15.238785 11.579868 13.624144 11 11.5 11 C 8.5530864 11 6.5 12.125 6.5 12.125 L 6 12.40625 L 6 13 L 6 15 L 4 15 L 4 10.625 C 4.2129224 10.479175 4.7480058 10.052235 6.5 9.4375 C 8.5352127 8.7233903 11.66236 8 16 8 z M 11.5 13 C 13.37066 13 14.463427 13.414864 15 13.65625 L 15 15 L 8 15 L 8 13.65625 C 8.5365735 13.414864 9.6293402 13 11.5 13 z M 20.5 13 C 22.37066 13 23.463427 13.414864 24 13.65625 L 24 15 L 17 15 L 17 13.65625 C 17.536573 13.414864 18.62934 13 20.5 13 z M 4 17 L 28 17 L 28 20 L 28 25 L 27 25 L 27 24 L 27 23 L 26 23 L 6 23 L 5 23 L 5 24 L 5 25 L 4 25 L 4 20 L 4 17 z" color="#000" overflow="visible" font-family="Bitstream Vera Sans"/>
</svg>