<svg xmlns="http://www.w3.org/2000/svg" width="50" height="50" viewBox="0 0 50 50">
    <path style="text-indent:0;text-align:start;line-height:normal;text-transform:none;block-progression:tb;-inkscape-font-specification:Bitstream Vera Sans" d="M 22 0 L 22 9.3125 C 16.072807 10.516241 11.504202 15.203134 11.03125 21 L 10.15625 21 L 10 21 A 1.0001 1.0001 0 0 0 9.90625 21 A 1.001098 1.001098 0 0 0 9.71875 21.03125 C 8.2070766 21.178782 7 22.452489 7 24 C 7 25.492867 8.126559 26.718347 9.5625 26.9375 C 9.59447 26.942379 9.6239716 26.964906 9.65625 26.96875 A 1.0043849 1.0043849 0 0 0 9.84375 27 C 9.8966174 27.002832 9.9464821 27 10 27 L 10.09375 27 L 39.84375 27 L 40 27 C 40.032111 27 40.061868 27.001025 40.09375 27 A 1.0001 1.0001 0 0 0 40.125 27 C 40.179119 26.997681 40.227871 26.97396 40.28125 26.96875 C 41.792924 26.821218 43 25.547511 43 24 C 43 22.452489 41.792924 21.178782 40.28125 21.03125 C 40.20696 21.024 40.138194 21.001622 40.0625 21 A 1.0001 1.0001 0 0 0 40 21 L 39.71875 21 L 38.96875 21 C 38.495798 15.203134 33.927193 10.516241 28 9.3125 L 28 0 L 26 0 L 26 9.03125 C 25.665412 9.0089114 25.340316 9 25 9 C 24.659684 9 24.334588 9.0089114 24 9.03125 L 24 0 L 22 0 z M 25 11 C 31.309798 11 36.390685 15.419251 36.9375 21 L 13.0625 21 C 13.609315 15.419251 18.690202 11 25 11 z M 9.96875 23 A 1.001098 1.001098 0 0 0 10 23 L 10.09375 23 L 11.8125 23 L 12.21875 23 L 37.8125 23 L 38.21875 23 L 39.75 23 L 40 23 A 1.0001 1.0001 0 0 0 40.09375 23 C 40.612188 23.045351 41 23.466814 41 24 C 41 24.543801 40.59648 24.968957 40.0625 25 C 40.041654 25.001212 40.021229 25 40 25 L 39.90625 25 L 10.15625 25 L 10 25 C 9.9681558 25 9.9372134 25.002709 9.90625 25 C 9.3878117 24.954649 9 24.533186 9 24 C 9 23.445585 9.419235 23.01593 9.96875 23 z M 17 30 C 15.895431 30 15 30.895431 15 32 C 15 33.104569 15.895431 34 17 34 C 18.104569 34 19 33.104569 19 32 C 19 30.895431 18.104569 30 17 30 z M 25 30 C 23.895431 30 23 30.895431 23 32 C 23 33.104569 23.895431 34 25 34 C 26.104569 34 27 33.104569 27 32 C 27 30.895431 26.104569 30 25 30 z M 33 30 C 31.895431 30 31 30.895431 31 32 C 31 33.104569 31.895431 34 33 34 C 34.104569 34 35 33.104569 35 32 C 35 30.895431 34.104569 30 33 30 z M 13 38 C 11.895431 38 11 38.895431 11 40 C 11 41.104569 11.895431 42 13 42 C 14.104569 42 15 41.104569 15 40 C 15 38.895431 14.104569 38 13 38 z M 21 38 C 19.895431 38 19 38.895431 19 40 C 19 41.104569 19.895431 42 21 42 C 22.104569 42 23 41.104569 23 40 C 23 38.895431 22.104569 38 21 38 z M 29 38 C 27.895431 38 27 38.895431 27 40 C 27 41.104569 27.895431 42 29 42 C 30.104569 42 31 41.104569 31 40 C 31 38.895431 30.104569 38 29 38 z M 37 38 C 35.895431 38 35 38.895431 35 40 C 35 41.104569 35.895431 42 37 42 C 38.104569 42 39 41.104569 39 40 C 39 38.895431 38.104569 38 37 38 z M 9 46 C 7.8954305 46 7 46.895431 7 48 C 7 49.104569 7.8954305 50 9 50 C 10.104569 50 11 49.104569 11 48 C 11 46.895431 10.104569 46 9 46 z M 17 46 C 15.895431 46 15 46.895431 15 48 C 15 49.104569 15.895431 50 17 50 C 18.104569 50 19 49.104569 19 48 C 19 46.895431 18.104569 46 17 46 z M 25 46 C 23.895431 46 23 46.895431 23 48 C 23 49.104569 23.895431 50 25 50 C 26.104569 50 27 49.104569 27 48 C 27 46.895431 26.104569 46 25 46 z M 33 46 C 31.895431 46 31 46.895431 31 48 C 31 49.104569 31.895431 50 33 50 C 34.104569 50 35 49.104569 35 48 C 35 46.895431 34.104569 46 33 46 z M 41 46 C 39.895431 46 39 46.895431 39 48 C 39 49.104569 39.895431 50 41 50 C 42.104569 50 43 49.104569 43 48 C 43 46.895431 42.104569 46 41 46 z"/>
</svg>