<svg xmlns="http://www.w3.org/2000/svg" width="50" height="50" viewBox="0 0 50 50">
    <path style="text-indent:0;text-align:start;line-height:normal;text-transform:none;block-progression:tb;-inkscape-font-specification:Bitstream Vera Sans" d="M 8.8125 3 A 1.0001 1.0001 0 0 0 8 4 L 8 8 L 4 8 A 1.0001 1.0001 0 0 0 3.90625 8 A 1.0001 1.0001 0 0 0 3 9 L 3 15 A 1.0001 1.0001 0 0 0 4 16 L 8 16 L 8 41 A 1.0001 1.0001 0 0 0 9 42 L 34 42 L 34 46 A 1.0001 1.0001 0 0 0 35 47 L 41 47 A 1.0001 1.0001 0 0 0 42 46 L 42 42 L 46 42 A 1.0001 1.0001 0 0 0 47 41 L 47 35 A 1.0001 1.0001 0 0 0 46 34 L 16 34 L 16 4 A 1.0001 1.0001 0 0 0 15 3 L 9 3 A 1.0001 1.0001 0 0 0 8.90625 3 A 1.0001 1.0001 0 0 0 8.8125 3 z M 10 5 L 14 5 L 14 35 A 1.0001 1.0001 0 0 0 15 36 L 45 36 L 45 40 L 10 40 L 10 5 z M 17.8125 8 A 1.001098 1.001098 0 0 0 18 10 L 40 10 L 40 32 A 1.0001 1.0001 0 1 0 42 32 L 42 9 A 1.0001 1.0001 0 0 0 41 8 L 18 8 A 1.0001 1.0001 0 0 0 17.90625 8 A 1.001098 1.001098 0 0 0 17.8125 8 z M 5 10 L 8 10 L 8 14 L 5 14 L 5 10 z M 17.8125 14 A 1.001098 1.001098 0 0 0 18 16 L 34 16 L 34 32 A 1.0001 1.0001 0 1 0 36 32 L 36 15 A 1.0001 1.0001 0 0 0 35 14 L 18 14 A 1.0001 1.0001 0 0 0 17.90625 14 A 1.001098 1.001098 0 0 0 17.8125 14 z M 36 42 L 40 42 L 40 45 L 36 45 L 36 42 z" color="#000" overflow="visible" enable-background="accumulate" font-family="Bitstream Vera Sans"/>
</svg>