<svg xmlns="http://www.w3.org/2000/svg" viewBox="0 0 32 32" width="64" height="64">
    <path style="text-indent:0;text-align:start;line-height:normal;text-transform:none;block-progression:tb;-inkscape-font-specification:Bitstream Vera Sans" d="M 16 4.90625 L 15.625 5.0625 L 3.625 10.0625 L 3 10.34375 L 3 11 L 3 26 L 5 26 L 5 11.6875 L 16 7.09375 L 27 11.6875 L 27 26 L 29 26 L 29 11 L 29 10.34375 L 28.375 10.0625 L 16.375 5.0625 L 16 4.90625 z M 11.5 11 C 10.155556 11 9.0781011 11.937564 8.65625 13.0625 L 8.65625 13.09375 L 7.25 17.375 L 7.34375 17.40625 C 7.1836751 17.760879 7 18.17448 7 18.3125 L 7 22 C 7 22.522222 7.1854695 23.060469 7.5625 23.4375 C 7.6903782 23.565378 7.8419454 23.665958 8 23.75 L 8 25 C 8 25.6 8.4 26 9 26 C 9.6 26 10 25.6 10 25 L 10 24 L 22 24 L 22 25 C 22 25.6 22.4 26 23 26 C 23.6 26 24 25.6 24 25 L 24 23.75 C 24.158055 23.665958 24.309622 23.565378 24.4375 23.4375 C 24.814531 23.060469 25 22.522222 25 22 L 25 18.3125 C 25 18.136234 24.96007 17.753018 24.8125 17.375 L 24.84375 17.375 L 23.4375 13.09375 L 23.4375 13.0625 C 23.015649 11.937564 21.938194 11 20.59375 11 L 11.5 11 z M 11.5 13 L 20.59375 13 C 21.049306 13 21.384351 13.274936 21.5625 13.75 L 22.28125 16 L 9.8125 16 L 10.5625 13.71875 C 10.744718 13.274514 11.060746 13 11.5 13 z M 9.15625 18 L 22.9375 18 L 22.96875 18.09375 L 23 18.15625 C 22.98074 18.11774 23 18.1125 23 18.3125 L 23 22 L 9 22 L 9 18.3125 L 9.0625 18.25 L 9.15625 18 z M 11 19 C 10.447715 19 10 19.447715 10 20 C 10 20.552285 10.447715 21 11 21 C 11.552285 21 12 20.552285 12 20 C 12 19.447715 11.552285 19 11 19 z M 21 19 C 20.447715 19 20 19.447715 20 20 C 20 20.552285 20.447715 21 21 21 C 21.552285 21 22 20.552285 22 20 C 22 19.447715 21.552285 19 21 19 z" color="#000" overflow="visible" font-family="Bitstream Vera Sans"/>
</svg>